<svg width="101" height="44" viewBox="0 0 101 44" fill="none" xmlns="http://www.w3.org/2000/svg">
<g filter="url(#filter0_i_1_453)">
<g clip-path="url(#clip0_1_453)">
<rect width="101" height="44" rx="4" fill="#509E2F"/>
<g filter="url(#filter1_d_1_453)">
<path d="M17.36 27.192C16.7627 27.192 16.1867 27.128 15.632 27C15.0773 26.8827 14.5867 26.6907 14.16 26.424C13.7333 26.1467 13.3973 25.8 13.152 25.384C12.9067 24.9573 12.784 24.4507 12.784 23.864C12.784 23.8 12.784 23.7413 12.784 23.688C12.7947 23.624 12.8 23.5707 12.8 23.528H14.592C14.592 23.56 14.5867 23.608 14.576 23.672C14.576 23.736 14.576 23.7893 14.576 23.832C14.576 24.2267 14.6933 24.5627 14.928 24.84C15.1627 25.1173 15.488 25.3253 15.904 25.464C16.3307 25.6027 16.816 25.672 17.36 25.672C17.6587 25.672 17.9467 25.656 18.224 25.624C18.5013 25.5813 18.752 25.5227 18.976 25.448C19.2107 25.3627 19.4133 25.2613 19.584 25.144C19.7547 25.016 19.888 24.8667 19.984 24.696C20.08 24.5253 20.128 24.328 20.128 24.104C20.128 23.7627 20.0267 23.48 19.824 23.256C19.632 23.032 19.3653 22.8453 19.024 22.696C18.6933 22.5467 18.3147 22.4133 17.888 22.296C17.472 22.1787 17.04 22.0613 16.592 21.944C16.144 21.8267 15.7067 21.688 15.28 21.528C14.864 21.368 14.4853 21.176 14.144 20.952C13.8133 20.7173 13.5467 20.4293 13.344 20.088C13.152 19.736 13.056 19.3093 13.056 18.808C13.056 18.328 13.1573 17.9013 13.36 17.528C13.5627 17.1547 13.856 16.8453 14.24 16.6C14.624 16.344 15.0827 16.152 15.616 16.024C16.1493 15.896 16.752 15.832 17.424 15.832C18 15.832 18.544 15.896 19.056 16.024C19.568 16.1413 20.016 16.328 20.4 16.584C20.784 16.84 21.0827 17.1653 21.296 17.56C21.52 17.9547 21.632 18.424 21.632 18.968V19.16H19.856V18.952C19.856 18.6107 19.7547 18.3227 19.552 18.088C19.3493 17.8533 19.0667 17.672 18.704 17.544C18.3413 17.416 17.92 17.352 17.44 17.352C16.8747 17.352 16.4 17.4107 16.016 17.528C15.632 17.6347 15.3387 17.7893 15.136 17.992C14.944 18.184 14.848 18.4187 14.848 18.696C14.848 19.0053 14.9493 19.2613 15.152 19.464C15.3547 19.656 15.6213 19.8213 15.952 19.96C16.2933 20.0987 16.672 20.2267 17.088 20.344C17.5147 20.4507 17.9467 20.568 18.384 20.696C18.832 20.8133 19.264 20.952 19.68 21.112C20.1067 21.272 20.4853 21.4693 20.816 21.704C21.1573 21.9387 21.4293 22.232 21.632 22.584C21.8347 22.9253 21.936 23.3467 21.936 23.848C21.936 24.6373 21.7387 25.2827 21.344 25.784C20.9493 26.2747 20.4053 26.632 19.712 26.856C19.0293 27.08 18.2453 27.192 17.36 27.192ZM26.7507 27.192C25.9401 27.192 25.2841 26.9787 24.7827 26.552C24.2814 26.1147 24.0307 25.3733 24.0307 24.328V18.584H25.6947V24.072C25.6947 24.392 25.7321 24.6587 25.8067 24.872C25.8921 25.0853 26.0094 25.256 26.1587 25.384C26.3081 25.512 26.4841 25.6027 26.6867 25.656C26.8894 25.7093 27.1134 25.736 27.3587 25.736C27.7428 25.736 28.0894 25.6453 28.3987 25.464C28.7187 25.272 28.9747 25.0107 29.1667 24.68C29.3588 24.3387 29.4548 23.9493 29.4548 23.512V18.584H31.1187V27H29.7587L29.6147 25.8H29.5027C29.3001 26.1093 29.0601 26.3653 28.7828 26.568C28.5054 26.7707 28.1961 26.9253 27.8548 27.032C27.5241 27.1387 27.1561 27.192 26.7507 27.192ZM37.811 27.192C37.2563 27.192 36.755 27.08 36.307 26.856C35.859 26.632 35.491 26.296 35.203 25.848H35.091L34.947 27H33.587V15.432H35.251V19.608H35.347C35.5283 19.3307 35.7417 19.1013 35.987 18.92C36.243 18.7387 36.531 18.6053 36.851 18.52C37.171 18.4347 37.5177 18.392 37.891 18.392C38.531 18.392 39.0963 18.5467 39.587 18.856C40.0777 19.1653 40.4563 19.64 40.723 20.28C41.0003 20.92 41.139 21.7467 41.139 22.76C41.139 23.7947 41.0057 24.6373 40.739 25.288C40.4723 25.9387 40.0883 26.4187 39.587 26.728C39.0963 27.0373 38.5043 27.192 37.811 27.192ZM37.347 25.752C37.827 25.752 38.2163 25.656 38.515 25.464C38.8243 25.272 39.0537 24.9733 39.203 24.568C39.3523 24.152 39.427 23.6133 39.427 22.952V22.664C39.427 22.0027 39.3523 21.464 39.203 21.048C39.0643 20.632 38.8403 20.328 38.531 20.136C38.2217 19.9333 37.8163 19.832 37.315 19.832C37.0057 19.832 36.723 19.8853 36.467 19.992C36.211 20.0987 35.9923 20.2693 35.811 20.504C35.6297 20.728 35.491 21.0213 35.395 21.384C35.299 21.7467 35.251 22.184 35.251 22.696V22.92C35.251 23.528 35.3203 24.0453 35.459 24.472C35.6083 24.888 35.8377 25.208 36.147 25.432C36.4563 25.6453 36.8563 25.752 37.347 25.752ZM46.2766 27.192C45.69 27.192 45.1726 27.128 44.7246 27C44.2766 26.872 43.9033 26.696 43.6046 26.472C43.306 26.248 43.0766 25.9813 42.9166 25.672C42.7673 25.352 42.6926 25 42.6926 24.616C42.6926 24.5627 42.6926 24.5147 42.6926 24.472C42.7033 24.4293 42.7086 24.392 42.7086 24.36H44.3566C44.3566 24.392 44.3566 24.424 44.3566 24.456C44.3566 24.4773 44.3566 24.504 44.3566 24.536C44.3566 24.8667 44.4473 25.1333 44.6286 25.336C44.81 25.528 45.05 25.6667 45.3486 25.752C45.658 25.8267 45.994 25.864 46.3566 25.864C46.6766 25.864 46.97 25.8267 47.2366 25.752C47.514 25.6667 47.738 25.544 47.9086 25.384C48.09 25.224 48.1806 25.0213 48.1806 24.776C48.1806 24.456 48.0686 24.2107 47.8446 24.04C47.6206 23.8693 47.3273 23.736 46.9646 23.64C46.602 23.5333 46.2233 23.4213 45.8286 23.304C45.4766 23.208 45.1246 23.1067 44.7726 23C44.4313 22.8827 44.122 22.7333 43.8446 22.552C43.5673 22.3707 43.3433 22.1413 43.1726 21.864C43.002 21.5867 42.9166 21.24 42.9166 20.824C42.9166 20.4293 43.002 20.0827 43.1726 19.784C43.3433 19.4853 43.578 19.2347 43.8766 19.032C44.186 18.8293 44.5486 18.6747 44.9646 18.568C45.3913 18.4613 45.8553 18.408 46.3566 18.408C46.8793 18.408 47.3433 18.4667 47.7486 18.584C48.154 18.6907 48.4953 18.8453 48.7726 19.048C49.0606 19.2507 49.2793 19.496 49.4286 19.784C49.578 20.0613 49.6526 20.36 49.6526 20.68C49.6526 20.744 49.6473 20.8133 49.6366 20.888C49.6366 20.952 49.6366 20.9947 49.6366 21.016H48.0046V20.872C48.0046 20.6587 47.946 20.4667 47.8286 20.296C47.7113 20.1253 47.5246 19.9867 47.2686 19.88C47.0233 19.7733 46.6926 19.72 46.2766 19.72C45.9993 19.72 45.754 19.7467 45.5406 19.8C45.3273 19.8427 45.1513 19.9067 45.0126 19.992C44.874 20.0773 44.7673 20.1787 44.6926 20.296C44.6286 20.4133 44.5966 20.5467 44.5966 20.696C44.5966 20.9413 44.682 21.1333 44.8526 21.272C45.034 21.4 45.2686 21.512 45.5566 21.608C45.8446 21.6933 46.154 21.7893 46.4846 21.896C46.8686 22.0027 47.258 22.1147 47.6526 22.232C48.0473 22.3387 48.41 22.4773 48.7406 22.648C49.082 22.8187 49.354 23.0533 49.5566 23.352C49.77 23.6507 49.8766 24.0507 49.8766 24.552C49.8766 25.0107 49.786 25.4107 49.6046 25.752C49.4233 26.0933 49.1673 26.3707 48.8366 26.584C48.5166 26.7867 48.138 26.936 47.7006 27.032C47.2633 27.1387 46.7886 27.192 46.2766 27.192ZM55.2272 27.192C54.3846 27.192 53.6806 27.0373 53.1152 26.728C52.5499 26.408 52.1232 25.9227 51.8352 25.272C51.5579 24.6213 51.4192 23.7947 51.4192 22.792C51.4192 21.7893 51.5632 20.968 51.8512 20.328C52.1392 19.6773 52.5659 19.192 53.1312 18.872C53.7072 18.552 54.4112 18.392 55.2432 18.392C55.8192 18.392 56.3206 18.4667 56.7472 18.616C57.1739 18.7547 57.5366 18.968 57.8352 19.256C58.1339 19.5333 58.3526 19.88 58.4912 20.296C58.6406 20.712 58.7152 21.1867 58.7152 21.72H57.0352C57.0352 21.272 56.9712 20.904 56.8432 20.616C56.7152 20.328 56.5179 20.1147 56.2512 19.976C55.9846 19.8267 55.6379 19.752 55.2112 19.752C54.7632 19.752 54.3846 19.8587 54.0752 20.072C53.7659 20.2747 53.5312 20.5893 53.3712 21.016C53.2112 21.432 53.1312 21.9813 53.1312 22.664V22.936C53.1312 23.5867 53.2059 24.1307 53.3552 24.568C53.5152 24.9947 53.7499 25.3147 54.0592 25.528C54.3792 25.7307 54.7846 25.832 55.2752 25.832C55.7019 25.832 56.0432 25.7573 56.2992 25.608C56.5659 25.448 56.7632 25.224 56.8912 24.936C57.0299 24.6373 57.0992 24.28 57.0992 23.864H58.7152C58.7152 24.3653 58.6406 24.8187 58.4912 25.224C58.3526 25.6293 58.1339 25.9813 57.8352 26.28C57.5472 26.568 57.1846 26.792 56.7472 26.952C56.3099 27.112 55.8032 27.192 55.2272 27.192ZM60.7189 27V18.584H62.0949L62.2389 19.944H62.3349C62.4309 19.6773 62.5535 19.4267 62.7029 19.192C62.8629 18.9573 63.0655 18.7653 63.3109 18.616C63.5669 18.4667 63.8762 18.392 64.2389 18.392C64.4095 18.392 64.5589 18.408 64.6869 18.44C64.8255 18.472 64.9322 18.4987 65.0069 18.52V20.088H64.4469C64.1055 20.088 63.8015 20.1413 63.5349 20.248C63.2789 20.3547 63.0602 20.5147 62.8789 20.728C62.7082 20.9307 62.5802 21.1813 62.4949 21.48C62.4202 21.7787 62.3829 22.1147 62.3829 22.488V27H60.7189ZM66.5701 17.128V15.432H68.2341V17.128H66.5701ZM66.5701 27V18.584H68.2341V27H66.5701ZM74.9266 27.192C74.372 27.192 73.8706 27.08 73.4226 26.856C72.9746 26.632 72.6066 26.296 72.3186 25.848H72.2066L72.0626 27H70.7026V15.432H72.3666V19.608H72.4626C72.644 19.3307 72.8573 19.1013 73.1026 18.92C73.3586 18.7387 73.6466 18.6053 73.9666 18.52C74.2866 18.4347 74.6333 18.392 75.0066 18.392C75.6466 18.392 76.212 18.5467 76.7026 18.856C77.1933 19.1653 77.572 19.64 77.8386 20.28C78.116 20.92 78.2546 21.7467 78.2546 22.76C78.2546 23.7947 78.1213 24.6373 77.8546 25.288C77.588 25.9387 77.204 26.4187 76.7026 26.728C76.212 27.0373 75.62 27.192 74.9266 27.192ZM74.4626 25.752C74.9426 25.752 75.332 25.656 75.6306 25.464C75.94 25.272 76.1693 24.9733 76.3186 24.568C76.468 24.152 76.5426 23.6133 76.5426 22.952V22.664C76.5426 22.0027 76.468 21.464 76.3186 21.048C76.18 20.632 75.956 20.328 75.6466 20.136C75.3373 19.9333 74.932 19.832 74.4306 19.832C74.1213 19.832 73.8386 19.8853 73.5826 19.992C73.3266 20.0987 73.108 20.2693 72.9266 20.504C72.7453 20.728 72.6066 21.0213 72.5106 21.384C72.4146 21.7467 72.3666 22.184 72.3666 22.696V22.92C72.3666 23.528 72.436 24.0453 72.5746 24.472C72.724 24.888 72.9533 25.208 73.2626 25.432C73.572 25.6453 73.972 25.752 74.4626 25.752ZM83.7762 27.192C82.9122 27.192 82.1869 27.0373 81.6002 26.728C81.0242 26.408 80.5869 25.9227 80.2882 25.272C79.9896 24.6213 79.8402 23.7947 79.8402 22.792C79.8402 21.7787 79.9896 20.952 80.2882 20.312C80.5869 19.6613 81.0296 19.1813 81.6162 18.872C82.2029 18.552 82.9336 18.392 83.8082 18.392C84.6082 18.392 85.2749 18.5467 85.8082 18.856C86.3522 19.1547 86.7629 19.6133 87.0402 20.232C87.3176 20.8507 87.4562 21.6293 87.4562 22.568V23.208H81.5522C81.5736 23.8053 81.6642 24.3067 81.8242 24.712C81.9842 25.1067 82.2242 25.4 82.5442 25.592C82.8749 25.7733 83.2909 25.864 83.7922 25.864C84.1016 25.864 84.3789 25.8267 84.6242 25.752C84.8696 25.6667 85.0776 25.5493 85.2482 25.4C85.4189 25.24 85.5522 25.0533 85.6482 24.84C85.7442 24.616 85.7922 24.3653 85.7922 24.088H87.4242C87.4242 24.5893 87.3389 25.032 87.1682 25.416C86.9976 25.8 86.7469 26.1253 86.4162 26.392C86.0962 26.648 85.7122 26.8453 85.2642 26.984C84.8162 27.1227 84.3202 27.192 83.7762 27.192ZM81.5842 21.992H85.7122C85.7122 21.576 85.6642 21.2293 85.5682 20.952C85.4829 20.664 85.3549 20.4293 85.1842 20.248C85.0136 20.0667 84.8109 19.9387 84.5762 19.864C84.3416 19.7787 84.0749 19.736 83.7762 19.736C83.3282 19.736 82.9442 19.816 82.6242 19.976C82.3149 20.136 82.0749 20.3867 81.9042 20.728C81.7336 21.0587 81.6269 21.48 81.5842 21.992Z" fill="#FCFAFF"/>
</g>
</g>
</g>
<defs>
<filter id="filter0_i_1_453" x="0" y="-1" width="101" height="45" filterUnits="userSpaceOnUse" color-interpolation-filters="sRGB">
<feFlood flood-opacity="0" result="BackgroundImageFix"/>
<feBlend mode="normal" in="SourceGraphic" in2="BackgroundImageFix" result="shape"/>
<feColorMatrix in="SourceAlpha" type="matrix" values="0 0 0 0 0 0 0 0 0 0 0 0 0 0 0 0 0 0 127 0" result="hardAlpha"/>
<feOffset dy="-1"/>
<feGaussianBlur stdDeviation="2"/>
<feComposite in2="hardAlpha" operator="arithmetic" k2="-1" k3="1"/>
<feColorMatrix type="matrix" values="0 0 0 0 0 0 0 0 0 0 0 0 0 0 0 0 0 0 0.16 0"/>
<feBlend mode="normal" in2="shape" result="effect1_innerShadow_1_453"/>
</filter>
<filter id="filter1_d_1_453" x="10.7841" y="15.432" width="78.6722" height="15.76" filterUnits="userSpaceOnUse" color-interpolation-filters="sRGB">
<feFlood flood-opacity="0" result="BackgroundImageFix"/>
<feColorMatrix in="SourceAlpha" type="matrix" values="0 0 0 0 0 0 0 0 0 0 0 0 0 0 0 0 0 0 127 0" result="hardAlpha"/>
<feOffset dy="2"/>
<feGaussianBlur stdDeviation="1"/>
<feComposite in2="hardAlpha" operator="out"/>
<feColorMatrix type="matrix" values="0 0 0 0 0 0 0 0 0 0 0 0 0 0 0 0 0 0 0.16 0"/>
<feBlend mode="normal" in2="BackgroundImageFix" result="effect1_dropShadow_1_453"/>
<feBlend mode="normal" in="SourceGraphic" in2="effect1_dropShadow_1_453" result="shape"/>
</filter>
<clipPath id="clip0_1_453">
<rect width="101" height="44" rx="4" fill="white"/>
</clipPath>
</defs>
</svg>
