<svg width="290" height="44" viewBox="0 0 290 44" fill="none" xmlns="http://www.w3.org/2000/svg">
<rect x="0.5" y="0.5" width="289" height="43" rx="3.5" fill="#FBFDFE"/>
<path d="M25.04 16.848L21.408 23.792V28H19.952V23.792L16.304 16.848H17.92L20.672 22.496L23.424 16.848H25.04ZM30.7197 28.144C29.8984 28.144 29.1517 27.9573 28.4797 27.584C27.8184 27.2107 27.2957 26.6827 26.9117 26C26.5384 25.3067 26.3517 24.5067 26.3517 23.6C26.3517 22.704 26.5437 21.9147 26.9277 21.232C27.3224 20.5387 27.8557 20.0107 28.5277 19.648C29.1997 19.2747 29.9517 19.088 30.7838 19.088C31.6158 19.088 32.3678 19.2747 33.0398 19.648C33.7118 20.0107 34.2398 20.5333 34.6237 21.216C35.0184 21.8987 35.2157 22.6933 35.2157 23.6C35.2157 24.5067 35.0131 25.3067 34.6077 26C34.2131 26.6827 33.6744 27.2107 32.9918 27.584C32.3091 27.9573 31.5518 28.144 30.7197 28.144ZM30.7197 26.864C31.2424 26.864 31.7331 26.7413 32.1918 26.496C32.6504 26.2507 33.0184 25.8827 33.2958 25.392C33.5837 24.9013 33.7277 24.304 33.7277 23.6C33.7277 22.896 33.5891 22.2987 33.3117 21.808C33.0344 21.3173 32.6718 20.9547 32.2238 20.72C31.7758 20.4747 31.2904 20.352 30.7677 20.352C30.2344 20.352 29.7438 20.4747 29.2957 20.72C28.8584 20.9547 28.5064 21.3173 28.2397 21.808C27.9731 22.2987 27.8397 22.896 27.8397 23.6C27.8397 24.3147 27.9677 24.9173 28.2237 25.408C28.4904 25.8987 28.8424 26.2667 29.2797 26.512C29.7171 26.7467 30.1971 26.864 30.7197 26.864ZM45.2261 19.232V28H43.7701V26.704C43.4928 27.152 43.1035 27.504 42.6021 27.76C42.1115 28.0053 41.5675 28.128 40.9701 28.128C40.2875 28.128 39.6741 27.9893 39.1301 27.712C38.5861 27.424 38.1541 26.9973 37.8341 26.432C37.5248 25.8667 37.3701 25.1787 37.3701 24.368V19.232H38.8101V24.176C38.8101 25.04 39.0288 25.7067 39.4661 26.176C39.9035 26.6347 40.5008 26.864 41.2581 26.864C42.0368 26.864 42.6501 26.624 43.0981 26.144C43.5461 25.664 43.7701 24.9653 43.7701 24.048V19.232H45.2261ZM49.4605 20.656C49.7165 20.1547 50.0792 19.7653 50.5485 19.488C51.0285 19.2107 51.6098 19.072 52.2925 19.072V20.576H51.9085C50.2765 20.576 49.4605 21.4613 49.4605 23.232V28H48.0045V19.232H49.4605V20.656ZM60.3349 18.032V21.76H64.3989V22.96H60.3349V26.8H64.8789V28H58.8789V16.832H64.8789V18.032H60.3349ZM77.946 19.072C78.6287 19.072 79.2367 19.216 79.77 19.504C80.3033 19.7813 80.7247 20.2027 81.034 20.768C81.3433 21.3333 81.498 22.0213 81.498 22.832V28H80.058V23.04C80.058 22.1653 79.8393 21.4987 79.402 21.04C78.9753 20.5707 78.394 20.336 77.658 20.336C76.9007 20.336 76.298 20.5813 75.85 21.072C75.402 21.552 75.178 22.2507 75.178 23.168V28H73.738V23.04C73.738 22.1653 73.5193 21.4987 73.082 21.04C72.6553 20.5707 72.074 20.336 71.338 20.336C70.5807 20.336 69.978 20.5813 69.53 21.072C69.082 21.552 68.858 22.2507 68.858 23.168V28H67.402V19.232H68.858V20.496C69.146 20.0373 69.53 19.6853 70.01 19.44C70.5007 19.1947 71.0393 19.072 71.626 19.072C72.362 19.072 73.0127 19.2373 73.578 19.568C74.1433 19.8987 74.5647 20.384 74.842 21.024C75.0873 20.4053 75.4927 19.9253 76.058 19.584C76.6233 19.2427 77.2527 19.072 77.946 19.072ZM83.6624 23.584C83.6624 22.688 83.8437 21.904 84.2064 21.232C84.569 20.5493 85.065 20.0213 85.6944 19.648C86.3344 19.2747 87.0437 19.088 87.8224 19.088C88.5904 19.088 89.257 19.2533 89.8224 19.584C90.3877 19.9147 90.809 20.3307 91.0864 20.832V19.232H92.5584V28H91.0864V26.368C90.7984 26.88 90.3664 27.3067 89.7904 27.648C89.225 27.9787 88.5637 28.144 87.8064 28.144C87.0277 28.144 86.3237 27.952 85.6944 27.568C85.065 27.184 84.569 26.6453 84.2064 25.952C83.8437 25.2587 83.6624 24.4693 83.6624 23.584ZM91.0864 23.6C91.0864 22.9387 90.953 22.3627 90.6864 21.872C90.4197 21.3813 90.057 21.008 89.5984 20.752C89.1504 20.4853 88.6544 20.352 88.1104 20.352C87.5664 20.352 87.0704 20.48 86.6224 20.736C86.1744 20.992 85.817 21.3653 85.5504 21.856C85.2837 22.3467 85.1504 22.9227 85.1504 23.584C85.1504 24.256 85.2837 24.8427 85.5504 25.344C85.817 25.8347 86.1744 26.2133 86.6224 26.48C87.0704 26.736 87.5664 26.864 88.1104 26.864C88.6544 26.864 89.1504 26.736 89.5984 26.48C90.057 26.2133 90.4197 25.8347 90.6864 25.344C90.953 24.8427 91.0864 24.2613 91.0864 23.6ZM96.0909 17.808C95.8135 17.808 95.5789 17.712 95.3869 17.52C95.1949 17.328 95.0989 17.0933 95.0989 16.816C95.0989 16.5387 95.1949 16.304 95.3869 16.112C95.5789 15.92 95.8135 15.824 96.0909 15.824C96.3575 15.824 96.5815 15.92 96.7629 16.112C96.9549 16.304 97.0509 16.5387 97.0509 16.816C97.0509 17.0933 96.9549 17.328 96.7629 17.52C96.5815 17.712 96.3575 17.808 96.0909 17.808ZM96.7949 19.232V28H95.3389V19.232H96.7949ZM101.052 16.16V28H99.5964V16.16H101.052Z" fill="#253D4E"/>
<g clip-path="url(#clip0_1_444)">
<path d="M264 13.6666C259.417 13.6666 255.667 17.4166 255.667 22C255.667 26.5833 259.417 30.3333 264 30.3333C265.5 30.3333 266.917 29.9166 268.167 29.25C268.583 29 268.667 28.5 268.5 28.0833C268.25 27.6666 267.75 27.5833 267.333 27.75C264.167 29.5833 260.083 28.5 258.25 25.3333C256.417 22.1666 257.5 18.0833 260.667 16.25C263.833 14.4166 267.917 15.5 269.75 18.6666C270.333 19.6666 270.667 20.8333 270.667 22V22.6666C270.667 23.5 270 24.1666 269.167 24.1666C268.333 24.1666 267.667 23.5 267.667 22.6666V19.0833C267.667 18.5833 267.333 18.25 266.833 18.25C266.417 18.25 266.083 18.5 266 18.9166C264.333 17.75 261.917 18.1666 260.75 19.8333C259.583 21.5 260 23.9166 261.667 25.0833C263.25 26.1666 265.333 25.9166 266.583 24.5C267.667 25.8333 269.583 26.0833 270.917 25.0833C271.667 24.5 272.167 23.5833 272.167 22.5833V22C272.333 17.4166 268.583 13.6666 264 13.6666ZM264 24.0833C262.833 24.0833 261.917 23.1666 261.917 22C261.917 20.8333 262.833 19.9166 264 19.9166C265.167 19.9166 266.083 20.8333 266.083 22C266.083 23.1666 265.167 24.0833 264 24.0833Z" fill="#253D4E"/>
</g>
<rect x="0.5" y="0.5" width="289" height="43" rx="3.5" stroke="#253D4E"/>
<defs>
<clipPath id="clip0_1_444">
<rect width="20" height="20" fill="white" transform="translate(254 12)"/>
</clipPath>
</defs>
</svg>
